{"title":"SELENA GOMEZ JIMMY FALLON MARCH 19,2013-HDTV[Orion_Me]","uid":8278526,"size":110555344,"categoryP":"video","categoryS":"tv_shows","magnet":"?xt=urn:btih:a4e49d4478f74e2ec20e8401300bcb4420d7a3a4&amp;dn=SELENA+GOMEZ+JIMMY+FALLON+MARCH+19%2C2013-HDTV%5BOrion_Me%5D&amp;tr=udp%3A%2F%2Ftracker.openbittorrent.com%3A80&amp;tr=udp%3A%2F%2Fopen.demonii.com%3A1337&amp;tr=udp%3A%2F%2Ftracker.coppersurfer.tk%3A6969&amp;tr=udp%3A%2F%2Fexodus.desync.com%3A6969","seeders":1,"leechers":0,"uploader":"Orion_Me","files":15,"time":1363778840,"description":"\n_____________________________________________________________________________ \n       ooooooo        ooooooo       ooo       ooooooo      ooooo      ooo\n    ooo       ooo  ooo       ooo    ooo    ooo       ooo   oooooo     ooo \n    ooo       ooo  ooo      ooo     ooo    ooo       ooo   ooo ooo    ooo \n    ooo       ooo  ooo     ooo      ooo    ooo       ooo   ooo  ooo   ooo \n    ooo       ooo  oooooooooo       ooo    ooo       ooo   ooo   ooo  ooo\n    ooo       ooo  ooo     ooo      ooo    ooo       ooo   ooo    ooo ooo\n    ooo       ooo  ooo      ooo     ooo    ooo       ooo   ooo     oooooo\n       ooooooo     ooo       ooo    ooo       ooooooo      ooo      ooooo\n          \n                                                 \n                        ooooooo ooooooo         ooooooo       \n                      ooo     ooo     ooo     ooo\n                      ooo     ooo     ooo     ooo\n                      ooo     ooo     ooo     ooooooooo\n                      ooo     ooo     ooo     ooooooooo\n                      ooo     ooo     ooo     ooo\n                      ooo     ooo     ooo     ooo\n                      ooo     ooo     ooo       ooooooo\n______________________________________________________________________________\n\nKEEP LOOKING FORWARD TO FUTURE RELEASES.......Please seed as long as you can!!\n\nGeneral\nComplete name                    : SELENA GOMEZ JIMMY FALLON MARCH 19,2013-HDTV[Orion_Me].mp4\nFormat                           : MPEG-4\nFormat profile                   : Base Media / Version 2\nCodec ID                         : mp42\nFile size                        : 105 MiB\nDuration                         : 11mn 10s\nOverall bit rate                 : 1 311 Kbps\n\nVideo\nID                               : 1\nFormat                           : AVC\nFormat/Info                      : Advanced Video Codec\nFormat profile                   : &lt;a class=&quot;__cf_email__&quot; href=&quot;/cdn-cgi/l/email-protection&quot; data-cfemail=&quot;c088a9a7a8808cf3eef1&quot;&gt;[email&amp;#160;protected]&lt;/a&gt;&lt;script cf-hash='f9e31' type=&quot;text/javascript&quot;&gt;\n/* &lt;![CDATA[ */!function(){try{var t=&quot;currentScript&quot;in document?document.currentScript:function(){for(var t=document.getElementsByTagName(&quot;script&quot;),e=t.length;e--;)if(t[e].getAttribute(&quot;cf-hash&quot;))return t[e]}();if(t&amp;&amp;t.previousSibling){var e,r,n,i,c=t.previousSibling,a=c.getAttribute(&quot;data-cfemail&quot;);if(a){for(e=&quot;&quot;,r=parseInt(a.substr(0,2),16),n=2;a.length-n;n+=2)i=parseInt(a.substr(n,2),16)^r,e+=String.fromCharCode(i);e=document.createTextNode(e),c.parentNode.replaceChild(e,c)}}}catch(u){}}();/* ]]&gt; */&lt;/script&gt;\nFormat settings, CABAC           : Yes\nFormat settings, ReFrames        : 5 frames\nFormat settings, GOP             : M=3, N=14\nCodec ID                         : avc1\nCodec ID/Info                    : Advanced Video Coding\nDuration                         : 11mn 10s\nBit rate mode                    : Variable\nBit rate                         : 1 177 Kbps\nWidth                            : 720 pixels\nHeight                           : 404 pixels\nDisplay aspect ratio             : 16:9\nFrame rate mode                  : Variable\nFrame rate                       : 29.970 fps\nMinimum frame rate               : 29.970 fps\nMaximum frame rate               : 29.980 fps\nColor space                      : YUV\nChroma subsampling               : 4:2:0\nBit depth                        : 8 bits\nScan type                        : Progressive\nBits/(Pixel*Frame)               : 0.135\nStream size                      : 94.1 MiB (90%)\nLanguage                         : English\n\nAudio\nID                               : 2\nFormat                           : AAC\nFormat/Info                      : Advanced Audio Codec\nFormat version                   : Version 4\nFormat profile                   : LC\nFormat settings, SBR             : No\nCodec ID                         : 40\nDuration                         : 11mn 10s\nBit rate mode                    : Variable\nBit rate                         : 128 Kbps\nChannel(s)                       : 2 channels\nChannel positions                : Front: L R\nSampling rate                    : 48.0 KHz\nStream size                      : 10.2 MiB (10%)\nLanguage                         : English\n\n\n            --The Most Important Things In Life Aren't Free--\n\n\n\n","torrent":{"xt":"urn:btih:a4e49d4478f74e2ec20e8401300bcb4420d7a3a4","amp;dn":"SELENA+GOMEZ+JIMMY+FALLON+MARCH+19%2C2013-HDTV%5BOrion_Me%5D","amp;tr":["udp%3A%2F%2Ftracker.openbittorrent.com%3A80","udp%3A%2F%2Fopen.demonii.com%3A1337","udp%3A%2F%2Ftracker.coppersurfer.tk%3A6969","udp%3A%2F%2Fexodus.desync.com%3A6969"],"infoHash":"a4e49d4478f74e2ec20e8401300bcb4420d7a3a4","infoHashBuffer":{"type":"Buffer","data":[164,228,157,68,120,247,78,46,194,14,132,1,48,11,203,68,32,215,163,164]},"announce":[],"urlList":[]}}